<svg xmlns="http://www.w3.org/2000/svg" viewBox="0 0 1600 1000" width="1600" height="1000" role="img" aria-label="寻迹 截图占位">
  <defs>
    <pattern id="grid" width="40" height="40" patternUnits="userSpaceOnUse">
      <path d="M40 0H0V40" fill="none" stroke="rgba(0,0,0,.05)" stroke-width="1"/>
    </pattern>
  </defs>
  <rect width="1600" height="1000" fill="#ffffff"/>
  <rect width="1600" height="1000" fill="url(#grid)"/>
  <!-- 几何方块构图：左侧色块栏 + 右侧内容线 -->
  <rect x="80" y="80" width="12" height="840" fill="#0f1115"/>
  <rect x="140" y="80" width="320" height="320" fill="#f9fafb" stroke="rgba(0,0,0,.1)"/>
  <rect x="180" y="120" width="64" height="64" fill="#4176e6"/>
  <rect x="264" y="120" width="64" height="64" fill="#0f1115"/>
  <rect x="180" y="212" width="150" height="10" fill="rgba(0,0,0,.16)"/>
  <rect x="180" y="236" width="104" height="10" fill="rgba(0,0,0,.1)"/>
  <rect x="140" y="440" width="320" height="200" fill="#f9fafb" stroke="rgba(0,0,0,.1)"/>
  <rect x="180" y="480" width="240" height="10" fill="rgba(0,0,0,.16)"/>
  <rect x="180" y="504" width="180" height="10" fill="rgba(0,0,0,.1)"/>
  <rect x="180" y="560" width="60" height="40" fill="#0f1115"/>
  <rect x="140" y="680" width="320" height="240" fill="#f9fafb" stroke="rgba(0,0,0,.1)"/>
  <rect x="180" y="720" width="90" height="90" fill="#22c55e"/>
  <rect x="290" y="720" width="130" height="10" fill="rgba(0,0,0,.16)"/>
  <rect x="290" y="744" width="90" height="10" fill="rgba(0,0,0,.1)"/>
  <!-- 右侧：内容线 + 方块 -->
  <g stroke="rgba(0,0,0,.1)" stroke-width="1" fill="none">
    <path d="M540 140h980M540 220h760M540 300h880M540 380h640M540 460h920M540 540h700M540 620h840M540 700h600M540 780h760M540 860h520"/>
  </g>
  <rect x="540" y="140" width="10" height="720" fill="#4176e6" opacity=".9"/>
  <text x="560" y="96" font-family="ui-monospace, Menlo, monospace" font-size="34" fill="rgba(0,0,0,.45)">SCREENSHOT PLACEHOLDER</text>
  <text x="540" y="960" font-family="Georgia, serif" font-size="58" fill="#0f1115">寻迹</text>
  <text x="540" y="1000" font-family="ui-monospace, Menlo, monospace" font-size="30" fill="rgba(0,0,0,.45)">今日日程地图 · POI · ETA</text>
</svg>
